<mxfile host="65bd71144e">
    <diagram id="bHTJLvPFvvXJfZR5n1sB" name="Page-1">
        <mxGraphModel dx="944" dy="663" grid="0" gridSize="10" guides="1" tooltips="1" connect="1" arrows="1" fold="1" page="0" pageScale="1" pageWidth="850" pageHeight="1100" background="#ffffff" math="0" shadow="0">
            <root>
                <mxCell id="0"/>
                <mxCell id="1" parent="0"/>
                <mxCell id="131" value="" style="rounded=0;whiteSpace=wrap;html=1;labelBackgroundColor=default;fontFamily=Helvetica;fontSize=17;fillColor=#f5f5f5;fontColor=#333333;strokeColor=#666666;" vertex="1" parent="1">
                    <mxGeometry x="5" y="350" width="840" height="1930" as="geometry"/>
                </mxCell>
                <mxCell id="34" value="TestGit项目 本地目录(main branch)" style="rounded=0;whiteSpace=wrap;html=1;fontSize=15;fillColor=#f9f7ed;strokeColor=#36393d;" vertex="1" parent="1">
                    <mxGeometry x="318" y="281" width="244" height="40" as="geometry"/>
                </mxCell>
                <mxCell id="52" value="TestGit" style="rounded=0;whiteSpace=wrap;html=1;labelBackgroundColor=none;fontFamily=Helvetica;fontSize=18;fontColor=#000000;fillColor=none;align=center;" vertex="1" parent="1">
                    <mxGeometry x="40" y="360" width="80" height="40" as="geometry"/>
                </mxCell>
                <mxCell id="53" value=".git" style="rounded=0;whiteSpace=wrap;html=1;labelBackgroundColor=none;fontFamily=Helvetica;fontSize=18;fontColor=#000000;fillColor=none;align=center;" vertex="1" parent="1">
                    <mxGeometry x="80" y="400" width="80" height="40" as="geometry"/>
                </mxCell>
                <mxCell id="54" value=".gitignore" style="rounded=0;whiteSpace=wrap;html=1;labelBackgroundColor=none;fontFamily=Helvetica;fontSize=18;fillColor=#f8cecc;align=center;gradientColor=#ea6b66;strokeColor=#b85450;" vertex="1" parent="1">
                    <mxGeometry x="80" y="2080" width="90" height="40" as="geometry"/>
                </mxCell>
                <mxCell id="55" value="README.md" style="rounded=0;whiteSpace=wrap;html=1;labelBackgroundColor=none;fontFamily=Helvetica;fontSize=18;fillColor=#f8cecc;align=center;gradientColor=#ea6b66;strokeColor=#b85450;" vertex="1" parent="1">
                    <mxGeometry x="80" y="2120" width="120" height="40" as="geometry"/>
                </mxCell>
                <mxCell id="56" value="a" style="rounded=0;whiteSpace=wrap;html=1;labelBackgroundColor=none;fontFamily=Helvetica;fontSize=18;fillColor=#f8cecc;align=center;gradientColor=#ea6b66;strokeColor=#b85450;" vertex="1" parent="1">
                    <mxGeometry x="80" y="2160" width="40" height="40" as="geometry"/>
                </mxCell>
                <mxCell id="57" value="c" style="rounded=0;whiteSpace=wrap;html=1;labelBackgroundColor=none;fontFamily=Helvetica;fontSize=18;fillColor=#f8cecc;align=center;gradientColor=#ea6b66;strokeColor=#b85450;" vertex="1" parent="1">
                    <mxGeometry x="80" y="2200" width="40" height="40" as="geometry"/>
                </mxCell>
                <mxCell id="58" value="COMMIT_EDITMSG" style="rounded=0;whiteSpace=wrap;html=1;labelBackgroundColor=none;fontFamily=Helvetica;fontSize=18;fontColor=#000000;fillColor=none;align=center;" vertex="1" parent="1">
                    <mxGeometry x="120" y="440" width="183" height="40" as="geometry"/>
                </mxCell>
                <mxCell id="59" value="HEAD" style="rounded=0;whiteSpace=wrap;html=1;labelBackgroundColor=none;fontFamily=Helvetica;fontSize=18;align=center;fillColor=none;" vertex="1" parent="1">
                    <mxGeometry x="120" y="480" width="80" height="40" as="geometry"/>
                </mxCell>
                <mxCell id="60" value="config" style="rounded=0;whiteSpace=wrap;html=1;labelBackgroundColor=none;fontFamily=Helvetica;fontSize=18;align=center;fillColor=none;" vertex="1" parent="1">
                    <mxGeometry x="120" y="520" width="80" height="40" as="geometry"/>
                </mxCell>
                <mxCell id="61" value="description" style="rounded=0;whiteSpace=wrap;html=1;labelBackgroundColor=none;fontFamily=Helvetica;fontSize=18;fontColor=#000000;fillColor=none;align=center;" vertex="1" parent="1">
                    <mxGeometry x="120" y="560" width="120" height="40" as="geometry"/>
                </mxCell>
                <mxCell id="62" value="hooks" style="rounded=0;whiteSpace=wrap;html=1;labelBackgroundColor=none;fontFamily=Helvetica;fontSize=18;fontColor=#000000;fillColor=none;align=center;" vertex="1" parent="1">
                    <mxGeometry x="120" y="600" width="80" height="40" as="geometry"/>
                </mxCell>
                <mxCell id="63" value="pre-commit" style="rounded=0;whiteSpace=wrap;html=1;labelBackgroundColor=none;fontFamily=Helvetica;fontSize=18;fontColor=#000000;fillColor=none;align=center;" vertex="1" parent="1">
                    <mxGeometry x="160" y="640" width="120" height="40" as="geometry"/>
                </mxCell>
                <mxCell id="64" value="post-update" style="rounded=0;whiteSpace=wrap;html=1;labelBackgroundColor=none;fontFamily=Helvetica;fontSize=18;fontColor=#000000;fillColor=none;align=center;" vertex="1" parent="1">
                    <mxGeometry x="160" y="680" width="120" height="40" as="geometry"/>
                </mxCell>
                <mxCell id="65" value="..." style="rounded=0;whiteSpace=wrap;html=1;labelBackgroundColor=none;fontFamily=Helvetica;fontSize=18;fontColor=#000000;fillColor=none;align=center;" vertex="1" parent="1">
                    <mxGeometry x="160" y="720" width="120" height="40" as="geometry"/>
                </mxCell>
                <mxCell id="66" value="index" style="rounded=0;whiteSpace=wrap;html=1;labelBackgroundColor=none;fontFamily=Helvetica;fontSize=18;fillColor=#e6d0de;align=center;gradientColor=#d5739d;strokeColor=#996185;" vertex="1" parent="1">
                    <mxGeometry x="120" y="760" width="80" height="40" as="geometry"/>
                </mxCell>
                <mxCell id="67" value="info" style="rounded=0;whiteSpace=wrap;html=1;labelBackgroundColor=none;fontFamily=Helvetica;fontSize=18;fontColor=#000000;fillColor=none;align=center;" vertex="1" parent="1">
                    <mxGeometry x="120" y="800" width="80" height="40" as="geometry"/>
                </mxCell>
                <mxCell id="68" value="exclude" style="rounded=0;whiteSpace=wrap;html=1;labelBackgroundColor=none;fontFamily=Helvetica;fontSize=18;fontColor=#000000;fillColor=none;align=center;" vertex="1" parent="1">
                    <mxGeometry x="160" y="840" width="80" height="40" as="geometry"/>
                </mxCell>
                <mxCell id="69" value="logs" style="rounded=0;whiteSpace=wrap;html=1;labelBackgroundColor=none;fontFamily=Helvetica;fontSize=18;align=center;fillColor=none;" vertex="1" parent="1">
                    <mxGeometry x="120" y="880" width="80" height="40" as="geometry"/>
                </mxCell>
                <mxCell id="70" value="HEAD" style="rounded=0;whiteSpace=wrap;html=1;labelBackgroundColor=none;fontFamily=Helvetica;fontSize=18;fontColor=#000000;fillColor=none;align=center;" vertex="1" parent="1">
                    <mxGeometry x="160" y="920" width="80" height="40" as="geometry"/>
                </mxCell>
                <mxCell id="71" value="refs" style="rounded=0;whiteSpace=wrap;html=1;labelBackgroundColor=none;fontFamily=Helvetica;fontSize=18;fontColor=#000000;fillColor=none;align=center;" vertex="1" parent="1">
                    <mxGeometry x="160" y="960" width="80" height="40" as="geometry"/>
                </mxCell>
                <mxCell id="72" value="heads" style="rounded=0;whiteSpace=wrap;html=1;labelBackgroundColor=none;fontFamily=Helvetica;fontSize=18;align=center;fillColor=none;" vertex="1" parent="1">
                    <mxGeometry x="200" y="1000" width="80" height="40" as="geometry"/>
                </mxCell>
                <mxCell id="73" value="hwoll" style="rounded=0;whiteSpace=wrap;html=1;labelBackgroundColor=none;fontFamily=Helvetica;fontSize=18;align=center;fillColor=none;" vertex="1" parent="1">
                    <mxGeometry x="240" y="1040" width="80" height="40" as="geometry"/>
                </mxCell>
                <mxCell id="74" value="main" style="rounded=0;whiteSpace=wrap;html=1;labelBackgroundColor=none;fontFamily=Helvetica;fontSize=18;align=center;fillColor=none;" vertex="1" parent="1">
                    <mxGeometry x="240" y="1080" width="80" height="40" as="geometry"/>
                </mxCell>
                <mxCell id="75" value="remotes" style="rounded=0;whiteSpace=wrap;html=1;labelBackgroundColor=none;fontFamily=Helvetica;fontSize=18;align=center;fillColor=none;" vertex="1" parent="1">
                    <mxGeometry x="200" y="1120" width="80" height="40" as="geometry"/>
                </mxCell>
                <mxCell id="76" value="origin" style="rounded=0;whiteSpace=wrap;html=1;labelBackgroundColor=none;fontFamily=Helvetica;fontSize=18;align=center;fillColor=none;" vertex="1" parent="1">
                    <mxGeometry x="240" y="1160" width="80" height="40" as="geometry"/>
                </mxCell>
                <mxCell id="77" value="HEAD" style="rounded=0;whiteSpace=wrap;html=1;labelBackgroundColor=none;fontFamily=Helvetica;fontSize=18;align=center;fillColor=none;" vertex="1" parent="1">
                    <mxGeometry x="280" y="1200" width="80" height="40" as="geometry"/>
                </mxCell>
                <mxCell id="78" value="hwoll" style="rounded=0;whiteSpace=wrap;html=1;labelBackgroundColor=none;fontFamily=Helvetica;fontSize=18;align=center;fillColor=none;" vertex="1" parent="1">
                    <mxGeometry x="280" y="1240" width="80" height="40" as="geometry"/>
                </mxCell>
                <mxCell id="79" value="objects" style="rounded=0;whiteSpace=wrap;html=1;labelBackgroundColor=none;fontFamily=Helvetica;fontSize=18;align=center;fillColor=#fff2cc;gradientColor=#ffd966;strokeColor=#d6b656;" vertex="1" parent="1">
                    <mxGeometry x="120" y="1280" width="80" height="40" as="geometry"/>
                </mxCell>
                <mxCell id="80" value="23" style="rounded=0;whiteSpace=wrap;html=1;labelBackgroundColor=none;fontFamily=Helvetica;fontSize=18;align=center;fillColor=#fff2cc;gradientColor=#ffd966;strokeColor=#d6b656;" vertex="1" parent="1">
                    <mxGeometry x="160" y="1320" width="80" height="40" as="geometry"/>
                </mxCell>
                <mxCell id="81" value="e1fbf7017ac308a1acc0db5f4797f404f1b25b" style="rounded=0;whiteSpace=wrap;html=1;labelBackgroundColor=none;fontFamily=Helvetica;fontSize=18;align=center;fillColor=#fff2cc;gradientColor=#ffd966;strokeColor=#d6b656;" vertex="1" parent="1">
                    <mxGeometry x="200" y="1360" width="380" height="40" as="geometry"/>
                </mxCell>
                <mxCell id="82" value="2f" style="rounded=0;whiteSpace=wrap;html=1;labelBackgroundColor=none;fontFamily=Helvetica;fontSize=18;align=center;fillColor=#fff2cc;gradientColor=#ffd966;strokeColor=#d6b656;" vertex="1" parent="1">
                    <mxGeometry x="160" y="1400" width="80" height="40" as="geometry"/>
                </mxCell>
                <mxCell id="83" value="40ce79af9c0f4d5156bf10c683f8c20e2b41a9" style="rounded=0;whiteSpace=wrap;html=1;labelBackgroundColor=none;fontFamily=Helvetica;fontSize=18;align=center;fillColor=#fff2cc;gradientColor=#ffd966;strokeColor=#d6b656;" vertex="1" parent="1">
                    <mxGeometry x="200" y="1440" width="380" height="40" as="geometry"/>
                </mxCell>
                <mxCell id="84" value="..." style="rounded=0;whiteSpace=wrap;html=1;labelBackgroundColor=none;fontFamily=Helvetica;fontSize=18;align=center;fillColor=#fff2cc;gradientColor=#ffd966;strokeColor=#d6b656;" vertex="1" parent="1">
                    <mxGeometry x="160" y="1480" width="80" height="40" as="geometry"/>
                </mxCell>
                <mxCell id="85" value="info" style="rounded=0;whiteSpace=wrap;html=1;labelBackgroundColor=none;fontFamily=Helvetica;fontSize=18;align=center;fillColor=#fff2cc;gradientColor=#ffd966;strokeColor=#d6b656;" vertex="1" parent="1">
                    <mxGeometry x="160" y="1520" width="80" height="40" as="geometry"/>
                </mxCell>
                <mxCell id="86" value="pack" style="rounded=0;whiteSpace=wrap;html=1;labelBackgroundColor=none;fontFamily=Helvetica;fontSize=18;align=center;fillColor=#fff2cc;gradientColor=#ffd966;strokeColor=#d6b656;" vertex="1" parent="1">
                    <mxGeometry x="160" y="1560" width="80" height="40" as="geometry"/>
                </mxCell>
                <mxCell id="87" value="pack-dece91b354fed0a17c55af86a1b11b4d6229752a.idx" style="rounded=0;whiteSpace=wrap;html=1;labelBackgroundColor=none;fontFamily=Helvetica;fontSize=18;align=left;fillColor=#fff2cc;gradientColor=#ffd966;strokeColor=#d6b656;" vertex="1" parent="1">
                    <mxGeometry x="200" y="1600" width="480" height="40" as="geometry"/>
                </mxCell>
                <mxCell id="88" value="pack-dece91b354fed0a17c55af86a1b11b4d6229752a.pack" style="rounded=0;whiteSpace=wrap;html=1;labelBackgroundColor=none;fontFamily=Helvetica;fontSize=18;align=center;fillColor=#fff2cc;gradientColor=#ffd966;strokeColor=#d6b656;" vertex="1" parent="1">
                    <mxGeometry x="200" y="1640" width="480" height="40" as="geometry"/>
                </mxCell>
                <mxCell id="89" value="packed-refs" style="rounded=0;whiteSpace=wrap;html=1;labelBackgroundColor=none;fontFamily=Helvetica;fontSize=18;fontColor=#000000;fillColor=none;align=center;" vertex="1" parent="1">
                    <mxGeometry x="120" y="1680" width="120" height="40" as="geometry"/>
                </mxCell>
                <mxCell id="90" value="refs" style="rounded=0;whiteSpace=wrap;html=1;labelBackgroundColor=none;fontFamily=Helvetica;fontSize=18;align=center;fillColor=none;" vertex="1" parent="1">
                    <mxGeometry x="120" y="1720" width="80" height="40" as="geometry"/>
                </mxCell>
                <mxCell id="91" value="heads" style="rounded=0;whiteSpace=wrap;html=1;labelBackgroundColor=none;fontFamily=Helvetica;fontSize=18;fontColor=#000000;fillColor=none;align=center;" vertex="1" parent="1">
                    <mxGeometry x="160" y="1760" width="80" height="40" as="geometry"/>
                </mxCell>
                <mxCell id="92" value="hwoll" style="rounded=0;whiteSpace=wrap;html=1;labelBackgroundColor=none;fontFamily=Helvetica;fontSize=18;fontColor=#000000;fillColor=none;align=center;" vertex="1" parent="1">
                    <mxGeometry x="200" y="1800" width="80" height="40" as="geometry"/>
                </mxCell>
                <mxCell id="93" value="main" style="rounded=0;whiteSpace=wrap;html=1;labelBackgroundColor=none;fontFamily=Helvetica;fontSize=18;fontColor=#000000;fillColor=none;align=center;" vertex="1" parent="1">
                    <mxGeometry x="200" y="1840" width="80" height="40" as="geometry"/>
                </mxCell>
                <mxCell id="94" value="remotes" style="rounded=0;whiteSpace=wrap;html=1;labelBackgroundColor=none;fontFamily=Helvetica;fontSize=18;fillColor=#dae8fc;align=center;gradientColor=#7ea6e0;strokeColor=#6c8ebf;" vertex="1" parent="1">
                    <mxGeometry x="160" y="1880" width="80" height="40" as="geometry"/>
                </mxCell>
                <mxCell id="95" value="origin" style="rounded=0;whiteSpace=wrap;html=1;labelBackgroundColor=none;fontFamily=Helvetica;fontSize=18;fillColor=#dae8fc;align=center;gradientColor=#7ea6e0;strokeColor=#6c8ebf;" vertex="1" parent="1">
                    <mxGeometry x="200" y="1920" width="80" height="40" as="geometry"/>
                </mxCell>
                <mxCell id="96" value="HEAD" style="rounded=0;whiteSpace=wrap;html=1;labelBackgroundColor=none;fontFamily=Helvetica;fontSize=18;fillColor=#dae8fc;align=center;gradientColor=#7ea6e0;strokeColor=#6c8ebf;" vertex="1" parent="1">
                    <mxGeometry x="240" y="1960" width="80" height="40" as="geometry"/>
                </mxCell>
                <mxCell id="97" value="hwoll" style="rounded=0;whiteSpace=wrap;html=1;labelBackgroundColor=none;fontFamily=Helvetica;fontSize=18;fillColor=#dae8fc;align=center;gradientColor=#7ea6e0;strokeColor=#6c8ebf;" vertex="1" parent="1">
                    <mxGeometry x="240" y="2000" width="80" height="40" as="geometry"/>
                </mxCell>
                <mxCell id="98" value="tags" style="rounded=0;whiteSpace=wrap;html=1;labelBackgroundColor=none;fontFamily=Helvetica;fontSize=18;fontColor=#000000;fillColor=none;align=center;" vertex="1" parent="1">
                    <mxGeometry x="160" y="2040" width="80" height="40" as="geometry"/>
                </mxCell>
                <mxCell id="101" value="Working&lt;br&gt;Directory" style="ellipse;whiteSpace=wrap;html=1;labelBackgroundColor=none;fontFamily=Helvetica;fontSize=18;fillColor=#f8cecc;gradientColor=#ea6b66;strokeColor=#b85450;fontColor=#FFFFFF;" vertex="1" parent="1">
                    <mxGeometry x="265" y="2120" width="100" height="70" as="geometry"/>
                </mxCell>
                <mxCell id="102" value="&lt;font color=&quot;#666666&quot;&gt;&lt;span style=&quot;caret-color: rgb(13, 13, 13); font-family: Söhne, ui-sans-serif, system-ui, -apple-system, &amp;quot;Segoe UI&amp;quot;, Roboto, Ubuntu, Cantarell, &amp;quot;Noto Sans&amp;quot;, sans-serif, &amp;quot;Helvetica Neue&amp;quot;, Arial, &amp;quot;Apple Color Emoji&amp;quot;, &amp;quot;Segoe UI Emoji&amp;quot;, &amp;quot;Segoe UI Symbol&amp;quot;, &amp;quot;Noto Color Emoji&amp;quot;; font-size: 16px; text-align: start;&quot;&gt;在项目目录中，除了 &lt;/span&gt;&lt;code style=&quot;border: 0px solid rgb(227, 227, 227); box-sizing: border-box; --tw-border-spacing-x: 0; --tw-border-spacing-y: 0; --tw-translate-x: 0; --tw-translate-y: 0; --tw-rotate: 0; --tw-skew-x: 0; --tw-skew-y: 0; --tw-scale-x: 1; --tw-scale-y: 1; --tw-pan-x: ; --tw-pan-y: ; --tw-pinch-zoom: ; --tw-scroll-snap-strictness: proximity; --tw-gradient-from-position: ; --tw-gradient-via-position: ; --tw-gradient-to-position: ; --tw-ordinal: ; --tw-slashed-zero: ; --tw-numeric-figure: ; --tw-numeric-spacing: ; --tw-numeric-fraction: ; --tw-ring-inset: ; --tw-ring-offset-width: 0px; --tw-ring-offset-color: #fff; --tw-ring-color: rgba(69,89,164,0.5); --tw-ring-offset-shadow: 0 0 transparent; --tw-ring-shadow: 0 0 transparent; --tw-shadow: 0 0 transparent; --tw-shadow-colored: 0 0 transparent; --tw-blur: ; --tw-brightness: ; --tw-contrast: ; --tw-grayscale: ; --tw-hue-rotate: ; --tw-invert: ; --tw-saturate: ; --tw-sepia: ; --tw-drop-shadow: ; --tw-backdrop-blur: ; --tw-backdrop-brightness: ; --tw-backdrop-contrast: ; --tw-backdrop-grayscale: ; --tw-backdrop-hue-rotate: ; --tw-backdrop-invert: ; --tw-backdrop-opacity: ; --tw-backdrop-saturate: ; --tw-backdrop-sepia: ; --tw-contain-size: ; --tw-contain-layout: ; --tw-contain-paint: ; --tw-contain-style: ; font-feature-settings: normal; font-size: 0.875em; font-variation-settings: normal; font-weight: 600; caret-color: rgb(13, 13, 13); text-align: start; font-family: &amp;quot;Söhne Mono&amp;quot;, Monaco, &amp;quot;Andale Mono&amp;quot;, &amp;quot;Ubuntu Mono&amp;quot;, monospace !important;&quot;&gt;.git&lt;/code&gt;&lt;span style=&quot;caret-color: rgb(13, 13, 13); font-family: Söhne, ui-sans-serif, system-ui, -apple-system, &amp;quot;Segoe UI&amp;quot;, Roboto, Ubuntu, Cantarell, &amp;quot;Noto Sans&amp;quot;, sans-serif, &amp;quot;Helvetica Neue&amp;quot;, Arial, &amp;quot;Apple Color Emoji&amp;quot;, &amp;quot;Segoe UI Emoji&amp;quot;, &amp;quot;Segoe UI Symbol&amp;quot;, &amp;quot;Noto Color Emoji&amp;quot;; font-size: 16px; text-align: start;&quot;&gt; 目录以外的所有文件和目录都属于工作目录&lt;/span&gt;&lt;/font&gt;" style="rounded=0;whiteSpace=wrap;html=1;labelBackgroundColor=none;fontFamily=Helvetica;fontSize=18;fillColor=#f8cecc;gradientColor=#ea6b66;strokeColor=#b85450;" vertex="1" parent="1">
                    <mxGeometry x="400" y="2130" width="440" height="60" as="geometry"/>
                </mxCell>
                <mxCell id="103" value="Staging&lt;br&gt;Area" style="ellipse;whiteSpace=wrap;html=1;labelBackgroundColor=none;fontFamily=Helvetica;fontSize=18;fillColor=#e6d0de;gradientColor=#d5739d;strokeColor=#996185;fontColor=#FFFFFF;" vertex="1" parent="1">
                    <mxGeometry x="354" y="745" width="100" height="70" as="geometry"/>
                </mxCell>
                <mxCell id="104" value="&lt;span style=&quot;caret-color: rgb(13, 13, 13); font-family: Söhne, ui-sans-serif, system-ui, -apple-system, &amp;quot;Segoe UI&amp;quot;, Roboto, Ubuntu, Cantarell, &amp;quot;Noto Sans&amp;quot;, sans-serif, &amp;quot;Helvetica Neue&amp;quot;, Arial, &amp;quot;Apple Color Emoji&amp;quot;, &amp;quot;Segoe UI Emoji&amp;quot;, &amp;quot;Segoe UI Symbol&amp;quot;, &amp;quot;Noto Color Emoji&amp;quot;; font-size: 16px; text-align: start;&quot;&gt;&lt;font color=&quot;#666666&quot;&gt;工作目录和本地仓库之间的缓冲区域，用于存储即将提交到本地仓库的更改。&lt;/font&gt;&lt;/span&gt;" style="rounded=0;whiteSpace=wrap;html=1;labelBackgroundColor=none;fontFamily=Helvetica;fontSize=18;fillColor=#e6d0de;gradientColor=#d5739d;strokeColor=#996185;" vertex="1" parent="1">
                    <mxGeometry x="520" y="750" width="310" height="60" as="geometry"/>
                </mxCell>
                <mxCell id="105" value="Local&lt;br&gt;Repo" style="ellipse;whiteSpace=wrap;html=1;labelBackgroundColor=none;fontFamily=Helvetica;fontSize=18;fillColor=#fff2cc;gradientColor=#ffd966;strokeColor=#d6b656;fontColor=#FFFFFF;" vertex="1" parent="1">
                    <mxGeometry x="607" y="1510" width="100" height="70" as="geometry"/>
                </mxCell>
                <mxCell id="106" value="Remote&lt;br&gt;Repo相关" style="ellipse;whiteSpace=wrap;html=1;labelBackgroundColor=none;fontFamily=Helvetica;fontSize=18;fillColor=#dae8fc;gradientColor=#7ea6e0;strokeColor=#6c8ebf;fontColor=#FFFFFF;" vertex="1" parent="1">
                    <mxGeometry x="680" y="1945" width="100" height="70" as="geometry"/>
                </mxCell>
                <mxCell id="107" value="&lt;span style=&quot;font-size: 17px;&quot;&gt;&lt;span style=&quot;caret-color: rgb(13, 13, 13); font-family: Söhne, ui-sans-serif, system-ui, -apple-system, &amp;quot;Segoe UI&amp;quot;, Roboto, Ubuntu, Cantarell, &amp;quot;Noto Sans&amp;quot;, sans-serif, &amp;quot;Helvetica Neue&amp;quot;, Arial, &amp;quot;Apple Color Emoji&amp;quot;, &amp;quot;Segoe UI Emoji&amp;quot;, &amp;quot;Segoe UI Symbol&amp;quot;, &amp;quot;Noto Color Emoji&amp;quot;; font-size: 17px; text-align: left;&quot;&gt;指向当前检出的分支，此刻的值为&amp;nbsp;&lt;/span&gt;&lt;font face=&quot;Söhne, ui-sans-serif, system-ui, -apple-system, Segoe UI, Roboto, Ubuntu, Cantarell, Noto Sans, sans-serif, Helvetica Neue, Arial, Apple Color Emoji, Segoe UI Emoji, Segoe UI Symbol, Noto Color Emoji&quot; style=&quot;font-size: 17px;&quot;&gt;&lt;span style=&quot;font-size: 17px; caret-color: rgb(13, 13, 13);&quot;&gt;ref: refs/heads/main，表示工作在main分支&amp;nbsp;&lt;/span&gt;&lt;/font&gt;&lt;/span&gt;" style="rounded=0;whiteSpace=wrap;html=1;labelBackgroundColor=none;fontFamily=Helvetica;fontSize=17;fontColor=#666666;strokeColor=none;fillColor=none;" vertex="1" parent="1">
                    <mxGeometry x="200" y="480" width="620" height="40" as="geometry"/>
                </mxCell>
                <mxCell id="114" value="&lt;span style=&quot;caret-color: rgb(13, 13, 13); font-family: Söhne, ui-sans-serif, system-ui, -apple-system, &amp;quot;Segoe UI&amp;quot;, Roboto, Ubuntu, Cantarell, &amp;quot;Noto Sans&amp;quot;, sans-serif, &amp;quot;Helvetica Neue&amp;quot;, Arial, &amp;quot;Apple Color Emoji&amp;quot;, &amp;quot;Segoe UI Emoji&amp;quot;, &amp;quot;Segoe UI Symbol&amp;quot;, &amp;quot;Noto Color Emoji&amp;quot;; font-size: 16px; text-align: left;&quot;&gt;存储所有数据（比如提交对象、树对象和blob对象）的地方。后面会详细介绍。&lt;/span&gt;" style="rounded=0;whiteSpace=wrap;html=1;labelBackgroundColor=none;fontFamily=Helvetica;fontSize=18;fontColor=#666666;fillColor=none;strokeColor=none;" vertex="1" parent="1">
                    <mxGeometry x="200" y="1280" width="600" height="40" as="geometry"/>
                </mxCell>
                <mxCell id="115" value="&lt;span style=&quot;caret-color: rgb(13, 13, 13); font-family: Söhne, ui-sans-serif, system-ui, -apple-system, &amp;quot;Segoe UI&amp;quot;, Roboto, Ubuntu, Cantarell, &amp;quot;Noto Sans&amp;quot;, sans-serif, &amp;quot;Helvetica Neue&amp;quot;, Arial, &amp;quot;Apple Color Emoji&amp;quot;, &amp;quot;Segoe UI Emoji&amp;quot;, &amp;quot;Segoe UI Symbol&amp;quot;, &amp;quot;Noto Color Emoji&amp;quot;; font-size: 17px; text-align: left;&quot;&gt;存储该项目特有的配置设置，例如远程仓库的url等&lt;br&gt;&lt;/span&gt;&lt;span style=&quot;font-family: Söhne, ui-sans-serif, system-ui, -apple-system, &amp;quot;Segoe UI&amp;quot;, Roboto, Ubuntu, Cantarell, &amp;quot;Noto Sans&amp;quot;, sans-serif, &amp;quot;Helvetica Neue&amp;quot;, Arial, &amp;quot;Apple Color Emoji&amp;quot;, &amp;quot;Segoe UI Emoji&amp;quot;, &amp;quot;Segoe UI Symbol&amp;quot;, &amp;quot;Noto Color Emoji&amp;quot;; text-align: left; caret-color: rgb(13, 13, 13);&quot;&gt;git全局配置见~/.gitconfig文件，适用于所有项目&lt;/span&gt;" style="rounded=0;whiteSpace=wrap;html=1;labelBackgroundColor=none;fontFamily=Helvetica;fontSize=17;fontColor=#666666;fillColor=none;strokeColor=none;" vertex="1" parent="1">
                    <mxGeometry x="200" y="520" width="407" height="40" as="geometry"/>
                </mxCell>
                <mxCell id="116" value="&lt;span style=&quot;caret-color: rgb(51, 51, 51); font-family: &amp;quot;Open Sans&amp;quot;, &amp;quot;Clear Sans&amp;quot;, &amp;quot;Helvetica Neue&amp;quot;, Helvetica, Arial, &amp;quot;Segoe UI Emoji&amp;quot;, sans-serif; font-size: 17px; orphans: 4; text-align: start;&quot;&gt;该目录中每个文件代表一个&lt;font color=&quot;#ff3333&quot; style=&quot;font-size: 17px;&quot;&gt;本地分支&lt;/font&gt;，&lt;/span&gt;&lt;span style=&quot;caret-color: rgb(13, 13, 13); font-family: Söhne, ui-sans-serif, system-ui, -apple-system, &amp;quot;Segoe UI&amp;quot;, Roboto, Ubuntu, Cantarell, &amp;quot;Noto Sans&amp;quot;, sans-serif, &amp;quot;Helvetica Neue&amp;quot;, Arial, &amp;quot;Apple Color Emoji&amp;quot;, &amp;quot;Segoe UI Emoji&amp;quot;, &amp;quot;Segoe UI Symbol&amp;quot;, &amp;quot;Noto Color Emoji&amp;quot;; font-size: 17px; text-align: left;&quot;&gt;文件的内容是指向该分支当前最新提交的哈希值。&lt;/span&gt;" style="rounded=0;whiteSpace=wrap;html=1;labelBackgroundColor=none;fontFamily=Helvetica;fontSize=17;fontColor=#666666;fillColor=none;strokeColor=none;" vertex="1" parent="1">
                    <mxGeometry x="240" y="1760" width="370" height="40" as="geometry"/>
                </mxCell>
                <mxCell id="117" value="文件内容：23e1，见提交记录图" style="rounded=0;whiteSpace=wrap;html=1;labelBackgroundColor=none;fontFamily=Helvetica;fontSize=17;fontColor=#666666;fillColor=none;strokeColor=none;" vertex="1" parent="1">
                    <mxGeometry x="280" y="1800" width="280" height="40" as="geometry"/>
                </mxCell>
                <mxCell id="118" value="文件内容：344e，见提交记录图" style="rounded=0;whiteSpace=wrap;html=1;labelBackgroundColor=none;fontFamily=Helvetica;fontSize=17;fontColor=#666666;fillColor=none;strokeColor=none;" vertex="1" parent="1">
                    <mxGeometry x="280" y="1840" width="280" height="40" as="geometry"/>
                </mxCell>
                <mxCell id="119" value="&lt;span style=&quot;caret-color: rgb(13, 13, 13); font-family: Söhne, ui-sans-serif, system-ui, -apple-system, &amp;quot;Segoe UI&amp;quot;, Roboto, Ubuntu, Cantarell, &amp;quot;Noto Sans&amp;quot;, sans-serif, &amp;quot;Helvetica Neue&amp;quot;, Arial, &amp;quot;Apple Color Emoji&amp;quot;, &amp;quot;Segoe UI Emoji&amp;quot;, &amp;quot;Segoe UI Symbol&amp;quot;, &amp;quot;Noto Color Emoji&amp;quot;; font-size: 17px; text-align: left;&quot;&gt;用于跟踪远程仓库分支状态的引用。每个文件代表一个&lt;font color=&quot;#ff3333&quot;&gt;远程分支&lt;/font&gt;。&lt;/span&gt;" style="rounded=0;whiteSpace=wrap;html=1;labelBackgroundColor=none;fontFamily=Helvetica;fontSize=17;fontColor=#666666;fillColor=none;strokeColor=none;" vertex="1" parent="1">
                    <mxGeometry x="280" y="1920" width="390" height="40" as="geometry"/>
                </mxCell>
                <mxCell id="120" value="ref: refs/remotes/origin/main" style="rounded=0;whiteSpace=wrap;html=1;labelBackgroundColor=none;fontFamily=Helvetica;fontSize=17;fontColor=#666666;fillColor=none;strokeColor=none;" vertex="1" parent="1">
                    <mxGeometry x="320" y="1960" width="250" height="40" as="geometry"/>
                </mxCell>
                <mxCell id="121" value="内容：23e1" style="rounded=0;whiteSpace=wrap;html=1;labelBackgroundColor=none;fontFamily=Helvetica;fontSize=17;fontColor=#666666;fillColor=none;strokeColor=none;" vertex="1" parent="1">
                    <mxGeometry x="319" y="2000" width="120" height="40" as="geometry"/>
                </mxCell>
                <mxCell id="122" value="&lt;span style=&quot;caret-color: rgb(13, 13, 13); font-family: Söhne, ui-sans-serif, system-ui, -apple-system, &amp;quot;Segoe UI&amp;quot;, Roboto, Ubuntu, Cantarell, &amp;quot;Noto Sans&amp;quot;, sans-serif, &amp;quot;Helvetica Neue&amp;quot;, Arial, &amp;quot;Apple Color Emoji&amp;quot;, &amp;quot;Segoe UI Emoji&amp;quot;, &amp;quot;Segoe UI Symbol&amp;quot;, &amp;quot;Noto Color Emoji&amp;quot;; font-size: 17px; text-align: left;&quot;&gt;包含了所有分支的日志记录&lt;/span&gt;" style="rounded=0;whiteSpace=wrap;html=1;labelBackgroundColor=none;fontFamily=Helvetica;fontSize=17;fontColor=#666666;fillColor=none;strokeColor=none;" vertex="1" parent="1">
                    <mxGeometry x="200" y="880" width="230" height="40" as="geometry"/>
                </mxCell>
                <mxCell id="123" value="&lt;span style=&quot;caret-color: rgb(13, 13, 13); font-family: Söhne, ui-sans-serif, system-ui, -apple-system, &amp;quot;Segoe UI&amp;quot;, Roboto, Ubuntu, Cantarell, &amp;quot;Noto Sans&amp;quot;, sans-serif, &amp;quot;Helvetica Neue&amp;quot;, Arial, &amp;quot;Apple Color Emoji&amp;quot;, &amp;quot;Segoe UI Emoji&amp;quot;, &amp;quot;Segoe UI Symbol&amp;quot;, &amp;quot;Noto Color Emoji&amp;quot;; text-align: left; font-size: 17px;&quot;&gt;&lt;font style=&quot;font-size: 17px;&quot;&gt;最后一次提交的提交信息。此刻文件内容为&quot;add c&quot;&lt;/font&gt;&lt;/span&gt;" style="rounded=0;whiteSpace=wrap;html=1;labelBackgroundColor=none;fontFamily=Helvetica;fontSize=17;fontColor=#666666;fillColor=none;strokeColor=none;" vertex="1" parent="1">
                    <mxGeometry x="303" y="440" width="410" height="40" as="geometry"/>
                </mxCell>
                <mxCell id="124" value="&lt;span style=&quot;caret-color: rgb(13, 13, 13); font-family: Söhne, ui-sans-serif, system-ui, -apple-system, &amp;quot;Segoe UI&amp;quot;, Roboto, Ubuntu, Cantarell, &amp;quot;Noto Sans&amp;quot;, sans-serif, &amp;quot;Helvetica Neue&amp;quot;, Arial, &amp;quot;Apple Color Emoji&amp;quot;, &amp;quot;Segoe UI Emoji&amp;quot;, &amp;quot;Segoe UI Symbol&amp;quot;, &amp;quot;Noto Color Emoji&amp;quot;; font-size: 17px; text-align: left;&quot;&gt;钩子目录包含一些脚本，这些脚本在执行特定的Git命令时会触发。&lt;/span&gt;" style="rounded=0;whiteSpace=wrap;html=1;labelBackgroundColor=none;fontFamily=Helvetica;fontSize=17;fontColor=#666666;fillColor=none;strokeColor=none;" vertex="1" parent="1">
                    <mxGeometry x="210" y="600" width="530" height="40" as="geometry"/>
                </mxCell>
                <mxCell id="125" value="&lt;span style=&quot;caret-color: rgb(13, 13, 13); font-family: Söhne, ui-sans-serif, system-ui, -apple-system, &amp;quot;Segoe UI&amp;quot;, Roboto, Ubuntu, Cantarell, &amp;quot;Noto Sans&amp;quot;, sans-serif, &amp;quot;Helvetica Neue&amp;quot;, Arial, &amp;quot;Apple Color Emoji&amp;quot;, &amp;quot;Segoe UI Emoji&amp;quot;, &amp;quot;Segoe UI Symbol&amp;quot;, &amp;quot;Noto Color Emoji&amp;quot;; font-size: 17px; text-align: left;&quot;&gt;提交前钩子，用于在提交发生前运行检查。&lt;/span&gt;" style="rounded=0;whiteSpace=wrap;html=1;labelBackgroundColor=none;fontFamily=Helvetica;fontSize=17;fontColor=#666666;fillColor=none;strokeColor=none;" vertex="1" parent="1">
                    <mxGeometry x="279" y="640" width="361" height="40" as="geometry"/>
                </mxCell>
                <mxCell id="126" value="&lt;span style=&quot;caret-color: rgb(13, 13, 13); font-family: Söhne, ui-sans-serif, system-ui, -apple-system, &amp;quot;Segoe UI&amp;quot;, Roboto, Ubuntu, Cantarell, &amp;quot;Noto Sans&amp;quot;, sans-serif, &amp;quot;Helvetica Neue&amp;quot;, Arial, &amp;quot;Apple Color Emoji&amp;quot;, &amp;quot;Segoe UI Emoji&amp;quot;, &amp;quot;Segoe UI Symbol&amp;quot;, &amp;quot;Noto Color Emoji&amp;quot;; font-size: 17px; text-align: left;&quot;&gt;类似&lt;/span&gt;&lt;code style=&quot;border: 0px solid rgb(227, 227, 227); box-sizing: border-box; --tw-border-spacing-x: 0; --tw-border-spacing-y: 0; --tw-translate-x: 0; --tw-translate-y: 0; --tw-rotate: 0; --tw-skew-x: 0; --tw-skew-y: 0; --tw-scale-x: 1; --tw-scale-y: 1; --tw-pan-x: ; --tw-pan-y: ; --tw-pinch-zoom: ; --tw-scroll-snap-strictness: proximity; --tw-gradient-from-position: ; --tw-gradient-via-position: ; --tw-gradient-to-position: ; --tw-ordinal: ; --tw-slashed-zero: ; --tw-numeric-figure: ; --tw-numeric-spacing: ; --tw-numeric-fraction: ; --tw-ring-inset: ; --tw-ring-offset-width: 0px; --tw-ring-offset-color: #fff; --tw-ring-color: rgba(69,89,164,0.5); --tw-ring-offset-shadow: 0 0 transparent; --tw-ring-shadow: 0 0 transparent; --tw-shadow: 0 0 transparent; --tw-shadow-colored: 0 0 transparent; --tw-blur: ; --tw-brightness: ; --tw-contrast: ; --tw-grayscale: ; --tw-hue-rotate: ; --tw-invert: ; --tw-saturate: ; --tw-sepia: ; --tw-drop-shadow: ; --tw-backdrop-blur: ; --tw-backdrop-brightness: ; --tw-backdrop-contrast: ; --tw-backdrop-grayscale: ; --tw-backdrop-hue-rotate: ; --tw-backdrop-invert: ; --tw-backdrop-opacity: ; --tw-backdrop-saturate: ; --tw-backdrop-sepia: ; --tw-contain-size: ; --tw-contain-layout: ; --tw-contain-paint: ; --tw-contain-style: ; font-feature-settings: normal; font-size: 17px; font-variation-settings: normal; font-weight: 600; margin-bottom: 1.25em; caret-color: rgb(13, 13, 13); text-align: left; font-family: &amp;quot;Söhne Mono&amp;quot;, Monaco, &amp;quot;Andale Mono&amp;quot;, &amp;quot;Ubuntu Mono&amp;quot;, monospace !important;&quot;&gt;.gitignore&lt;/code&gt;&lt;span style=&quot;caret-color: rgb(13, 13, 13); font-family: Söhne, ui-sans-serif, system-ui, -apple-system, &amp;quot;Segoe UI&amp;quot;, Roboto, Ubuntu, Cantarell, &amp;quot;Noto Sans&amp;quot;, sans-serif, &amp;quot;Helvetica Neue&amp;quot;, Arial, &amp;quot;Apple Color Emoji&amp;quot;, &amp;quot;Segoe UI Emoji&amp;quot;, &amp;quot;Segoe UI Symbol&amp;quot;, &amp;quot;Noto Color Emoji&amp;quot;; font-size: 17px; text-align: left;&quot;&gt;的作用，但它是仅适用于该仓库的忽略规则。&lt;/span&gt;" style="rounded=0;whiteSpace=wrap;html=1;labelBackgroundColor=none;fontFamily=Helvetica;fontSize=17;fontColor=#666666;fillColor=none;strokeColor=none;" vertex="1" parent="1">
                    <mxGeometry x="240" y="840" width="510" height="40" as="geometry"/>
                </mxCell>
                <mxCell id="127" value="&lt;span style=&quot;caret-color: rgb(13, 13, 13); font-family: Söhne, ui-sans-serif, system-ui, -apple-system, &amp;quot;Segoe UI&amp;quot;, Roboto, Ubuntu, Cantarell, &amp;quot;Noto Sans&amp;quot;, sans-serif, &amp;quot;Helvetica Neue&amp;quot;, Arial, &amp;quot;Apple Color Emoji&amp;quot;, &amp;quot;Segoe UI Emoji&amp;quot;, &amp;quot;Segoe UI Symbol&amp;quot;, &amp;quot;Noto Color Emoji&amp;quot;; font-size: 17px; text-align: left;&quot;&gt;记录了HEAD指针的移动历史。&lt;/span&gt;" style="rounded=0;whiteSpace=wrap;html=1;labelBackgroundColor=none;fontFamily=Helvetica;fontSize=17;fontColor=#666666;fillColor=none;strokeColor=none;" vertex="1" parent="1">
                    <mxGeometry x="240" y="920" width="250" height="40" as="geometry"/>
                </mxCell>
                <mxCell id="128" value="&lt;span style=&quot;caret-color: rgb(13, 13, 13); font-family: Söhne, ui-sans-serif, system-ui, -apple-system, &amp;quot;Segoe UI&amp;quot;, Roboto, Ubuntu, Cantarell, &amp;quot;Noto Sans&amp;quot;, sans-serif, &amp;quot;Helvetica Neue&amp;quot;, Arial, &amp;quot;Apple Color Emoji&amp;quot;, &amp;quot;Segoe UI Emoji&amp;quot;, &amp;quot;Segoe UI Symbol&amp;quot;, &amp;quot;Noto Color Emoji&amp;quot;; font-size: 17px; text-align: left;&quot;&gt;包含了压缩的引用，这有助于优化大仓库的性能。&lt;/span&gt;" style="rounded=0;whiteSpace=wrap;html=1;labelBackgroundColor=none;fontFamily=Helvetica;fontSize=17;fontColor=#666666;fillColor=none;strokeColor=none;" vertex="1" parent="1">
                    <mxGeometry x="240" y="1680" width="400" height="40" as="geometry"/>
                </mxCell>
                <mxCell id="130" value="&lt;span style=&quot;caret-color: rgb(13, 13, 13); font-family: Söhne, ui-sans-serif, system-ui, -apple-system, &amp;quot;Segoe UI&amp;quot;, Roboto, Ubuntu, Cantarell, &amp;quot;Noto Sans&amp;quot;, sans-serif, &amp;quot;Helvetica Neue&amp;quot;, Arial, &amp;quot;Apple Color Emoji&amp;quot;, &amp;quot;Segoe UI Emoji&amp;quot;, &amp;quot;Segoe UI Symbol&amp;quot;, &amp;quot;Noto Color Emoji&amp;quot;; font-size: 17px; text-align: left;&quot;&gt;标签通常用于标记特定的项目里程碑或版本发布。&lt;/span&gt;" style="rounded=0;whiteSpace=wrap;html=1;labelBackgroundColor=none;fontFamily=Helvetica;fontSize=17;fontColor=#666666;fillColor=none;strokeColor=none;" vertex="1" parent="1">
                    <mxGeometry x="240" y="2040" width="400" height="40" as="geometry"/>
                </mxCell>
                <mxCell id="134" value="" style="endArrow=none;html=1;dashed=1;fontFamily=Helvetica;fontSize=15;fontColor=#FF3333;strokeColor=none;" edge="1" parent="1">
                    <mxGeometry width="50" height="50" relative="1" as="geometry">
                        <mxPoint x="29" y="260" as="sourcePoint"/>
                        <mxPoint x="850" y="260" as="targetPoint"/>
                    </mxGeometry>
                </mxCell>
                <mxCell id="135" value="真正的远程仓库是GitHub上的该项目" style="rounded=0;whiteSpace=wrap;html=1;labelBackgroundColor=none;strokeColor=#6c8ebf;fontFamily=Helvetica;fontSize=15;fillColor=#dae8fc;gradientColor=#7ea6e0;fontColor=#666666;" vertex="1" parent="1">
                    <mxGeometry x="640" y="2030" width="190" height="60" as="geometry"/>
                </mxCell>
            </root>
        </mxGraphModel>
    </diagram>
</mxfile>